<svg id="Layer_1" enable-background="new 0 0 512 512" height="48" viewBox="0 0 512 512" width="48" fill="#fff" xmlns="http://www.w3.org/2000/svg"><g><g><path d="m486 303.799c0-29.417-14.255-56.128-37.938-72.41 10.751-13.555 16.738-30.456 16.738-47.989 0-27.058-14.346-52.13-37.169-66.013.777-3.931 1.169-7.939 1.169-11.987 0-33.966-27.634-61.6-61.6-61.6-4.234 0-8.398.421-12.467 1.258-4.609-25.586-27.039-45.058-53.933-45.058-18.491 0-34.871 9.204-44.8 23.273-9.929-14.069-26.309-23.273-44.8-23.273-26.895 0-49.327 19.476-53.934 45.065-1.743-.358-3.504-.642-5.279-.849-5.49-.643-10.451 3.29-11.09 8.775-.64 5.486 3.289 10.451 8.775 11.09 4.308.502 8.486 1.673 12.425 3.477.04.019.076.042.115.06 7.854 3.62 14.292 9.492 18.615 16.981 1.853 3.208 5.214 5.002 8.67 5.002 1.696 0 3.416-.433 4.991-1.341 4.783-2.762 6.422-8.877 3.661-13.661-5.284-9.151-12.702-16.666-21.669-22.028 1.153-18.153 16.281-32.571 34.72-32.571 19.189 0 34.8 15.611 34.8 34.8v111.2h-6.667c-12.464 0-22.676 9.823-23.303 22.135-.02.397-.03.797-.03 1.199v26.666h-26.667c-.402 0-.802.01-1.199.03-12.311.626-22.134 10.839-22.134 23.303v33.334c0 12.464 9.823 22.677 22.135 23.303.397.02.797.03 1.199.03h26.666v26.667c0 12.866 10.468 23.333 23.333 23.333h6.667v97.4c0 26.798-21.802 48.6-48.6 48.6-18.48 0-34.992-10.508-43.173-26.285 5.59-.249 11.144-1.095 16.554-2.545 5.334-1.43 8.5-6.913 7.071-12.248-1.429-5.334-6.912-8.503-12.248-7.071-7.809 2.093-16.068 2.504-24.051 1.196-.024-.004-.049-.004-.073-.008-27.482-4.497-47.483-27.818-47.862-55.637 6.652 1.586 13.467 2.397 20.382 2.397 7.688 0 15.35-1.009 22.776-2.999 5.334-1.429 8.5-6.913 7.071-12.248-1.43-5.334-6.91-8.501-12.248-7.071-5.738 1.537-11.659 2.317-17.599 2.317-8.776 0-17.351-1.667-25.486-4.957-.066-.027-.133-.044-.2-.069-25.711-10.495-42.314-35.188-42.314-62.973 0-26.143 14.574-49.52 38.044-61.057.053-.025.107-.041.159-.067 3.902-1.902 8.006-3.436 12.197-4.559 5.335-1.429 8.501-6.913 7.071-12.247-1.429-5.335-6.913-8.501-12.247-7.071-3.109.833-6.173 1.86-9.179 3.032-9.496-10.474-14.845-24.17-14.845-38.43 0-18.795 9.347-36.295 24.451-46.888 5.367 9.165 13.04 16.861 22.349 22.235 1.575.909 3.294 1.342 4.991 1.342 3.456 0 6.817-1.794 8.669-5.002 2.762-4.783 1.123-10.899-3.66-13.66-8.621-4.977-15.178-12.893-18.466-22.289-.015-.042-.035-.081-.05-.122-.979-2.829-1.654-5.769-2.001-8.741-.64-5.486-5.606-9.415-11.091-8.774-5.486.64-9.414 5.606-8.774 11.091.188 1.606.438 3.206.753 4.793-22.823 13.885-37.171 38.957-37.171 66.015 0 17.533 5.987 34.435 16.738 47.989-23.683 16.282-37.938 42.994-37.938 72.41 0 33.411 18.548 63.369 47.87 78.34-.18 2.15-.27 4.308-.27 6.461 0 18.437 6.605 36.285 18.6 50.257 10.395 12.109 24.264 20.68 39.575 24.571 8.691 28.51 35.289 48.572 65.625 48.572 24.787 0 46.544-13.212 58.6-32.966 12.056 19.754 33.814 32.966 58.6 32.966 30.336 0 56.935-20.062 65.625-48.572 15.311-3.891 29.179-12.462 39.575-24.571 11.995-13.972 18.6-31.82 18.6-50.257 0-2.152-.09-4.31-.27-6.461 29.321-14.971 47.87-44.929 47.87-78.34zm-246.667 22.201c-1.807 0-3.333-1.527-3.333-3.333v-36.667c0-5.523-4.477-10-10-10h-36.667c-1.807 0-3.333-1.526-3.333-3.333v-33.333c0-1.807 1.526-3.333 3.333-3.333h36.667c5.523 0 10-4.477 10-10v-36.667c0-1.807 1.526-3.333 3.333-3.333h33.334c1.807 0 3.333 1.526 3.333 3.333v36.666c0 5.523 4.477 10 10 10h36.667c1.807 0 3.333 1.527 3.333 3.333v33.333c0 1.807-1.526 3.333-3.333 3.333h-36.667c-5.523 0-10 4.477-10 10v36.667c0 1.807-1.526 3.333-3.333 3.333h-33.334zm184.354 40.773c-.067.025-.134.043-.201.07-8.135 3.289-16.71 4.957-25.486 4.957-5.94 0-11.861-.78-17.599-2.317-5.337-1.43-10.819 1.736-12.248 7.071-1.43 5.335 1.736 10.818 7.071 12.248 7.426 1.99 15.088 2.999 22.776 2.999 6.915 0 13.73-.811 20.382-2.397-.379 27.819-20.38 51.14-47.863 55.637-.024.004-.048.004-.072.008-7.982 1.309-16.242.897-24.051-1.196-5.334-1.429-10.818 1.736-12.248 7.071-1.43 5.334 1.736 10.818 7.071 12.248 5.41 1.45 10.964 2.297 16.554 2.545-8.181 15.775-24.693 26.283-43.173 26.283-26.798 0-48.6-21.802-48.6-48.6v-97.4h6.667c12.866 0 23.333-10.467 23.333-23.333v-26.667h26.667c12.866 0 23.333-10.467 23.333-23.333v-33.333-.001c0-11.66-8.597-21.349-19.784-23.063-1.157-.177-2.342-.269-3.549-.269h-26.667v-26.667c0-.402-.01-.802-.03-1.199-.626-12.312-10.839-22.135-23.303-22.135h-6.667v-111.2c0-19.189 15.611-34.8 34.8-34.8 18.439 0 33.567 14.418 34.721 32.572-8.966 5.361-16.384 12.876-21.668 22.028-2.762 4.783-1.123 10.899 3.66 13.66 1.575.909 3.294 1.342 4.991 1.342 3.456 0 6.817-1.794 8.669-5.002 4.325-7.49 10.762-13.362 18.616-16.981.036-.017.069-.038.105-.055 5.445-2.496 11.266-3.764 17.305-3.764 22.938 0 41.6 18.662 41.6 41.6 0 4.661-.769 9.238-2.28 13.607-.016.045-.038.086-.054.132-3.288 9.396-9.846 17.311-18.466 22.289-4.783 2.761-6.422 8.877-3.66 13.66 1.852 3.208 5.213 5.002 8.669 5.002 1.696 0 3.416-.433 4.991-1.342 9.309-5.375 16.983-13.07 22.35-22.235 15.104 10.593 24.451 28.093 24.451 46.888 0 14.26-5.349 27.956-14.845 38.43-3.007-1.172-6.07-2.199-9.179-3.032-5.336-1.431-10.818 1.736-12.247 7.071-1.43 5.334 1.736 10.818 7.071 12.247 4.191 1.123 8.294 2.657 12.197 4.559.053.026.107.042.16.067 23.469 11.536 38.043 34.913 38.043 61.056 0 27.784-16.603 52.477-42.313 62.974z"/><path d="m137.596 225.796c0 13.959-9.417 26.231-22.899 29.844-5.334 1.429-8.5 6.913-7.071 12.248 1.197 4.468 5.237 7.414 9.653 7.414.856 0 1.728-.111 2.595-.343 22.21-5.951 37.723-26.167 37.723-49.162 0-8.923-2.358-17.723-6.819-25.448-2.762-4.782-8.877-6.42-13.661-3.66-4.783 2.762-6.421 8.878-3.66 13.661 2.708 4.688 4.139 10.029 4.139 15.446z"/><path d="m189.198 396.083c.867.232 1.738.343 2.595.343 4.415 0 8.456-2.946 9.653-7.414 1.151-4.294 1.734-8.726 1.734-13.174 0-28.064-22.832-50.896-50.896-50.896-5.523 0-10 4.477-10 10s4.477 10 10 10c17.036 0 30.896 13.86 30.896 30.896 0 2.7-.354 5.39-1.053 7.996-1.429 5.335 1.737 10.819 7.071 12.249z"/><path d="m227.46 132.467c3.905-3.905 3.905-10.237 0-14.143s-10.237-3.905-14.143 0c-5.835 5.835-13.594 9.049-21.847 9.049s-16.012-3.214-21.847-9.049c-3.905-3.905-10.237-3.905-14.143 0s-3.905 10.237 0 14.143c9.613 9.613 22.394 14.907 35.989 14.907s26.378-5.294 35.991-14.907z"/><path d="m397.303 255.64c-13.483-3.613-22.899-15.885-22.899-29.844 0-5.416 1.431-10.757 4.139-15.448 2.762-4.783 1.123-10.899-3.66-13.66-4.782-2.76-10.899-1.123-13.66 3.66-4.461 7.726-6.819 16.526-6.819 25.448 0 22.995 15.512 43.211 37.723 49.162.867.232 1.738.343 2.595.343 4.415 0 8.456-2.947 9.653-7.414 1.429-5.335-1.737-10.818-7.072-12.247z"/><path d="m359.716 324.942c-28.064 0-50.896 22.832-50.896 50.896 0 4.448.583 8.88 1.734 13.174 1.198 4.468 5.238 7.414 9.653 7.414.857 0 1.728-.111 2.595-.343 5.334-1.43 8.5-6.914 7.07-12.248-.699-2.606-1.053-5.296-1.053-7.996 0-17.036 13.86-30.896 30.896-30.896 5.523 0 10-4.477 10-10s-4.476-10.001-9.999-10.001z"/><path d="m356.518 118.325c-3.905-3.905-10.237-3.905-14.143 0-5.835 5.835-13.594 9.049-21.847 9.049s-16.012-3.214-21.847-9.049c-3.905-3.905-10.237-3.905-14.143 0s-3.905 10.237 0 14.143c9.613 9.613 22.394 14.907 35.989 14.907s26.376-5.294 35.989-14.907c3.908-3.906 3.908-10.238.002-14.143z"/><path d="m108.314 78.913c5.523 0 10-4.477 10-10s-4.477-10-10-10h-.007c-5.523 0-9.996 4.477-9.996 10s4.48 10 10.003 10z"/></g></g></svg>