<svg xmlns="http://www.w3.org/2000/svg" width="25.994" height="25.971" viewBox="0 0 25.994 25.971">
  <g id="starred" transform="translate(-583 145.977)">
    <g id="Grupo_15" data-name="Grupo 15" transform="translate(583 -146)">
      <path id="Caminho_53" data-name="Caminho 53" d="M20.7,25.993a.549.549,0,0,1-.262-.067L13,21.816,5.561,25.926a.542.542,0,0,1-.8-.561L6.19,16.622.154,10.433A.541.541,0,0,1,.459,9.52L8.781,8.248,12.507.309a.563.563,0,0,1,.98,0l3.726,7.939L25.535,9.52a.541.541,0,0,1,.305.913L19.8,16.621l1.426,8.743a.54.54,0,0,1-.223.53.531.531,0,0,1-.311.1ZM13,20.655a.549.549,0,0,1,.262.067l6.723,3.716-1.291-7.912a.544.544,0,0,1,.147-.466l5.491-5.629L16.766,9.275a.541.541,0,0,1-.408-.305L13,1.815,9.639,8.971a.537.537,0,0,1-.408.3L1.666,10.431,7.157,16.06a.544.544,0,0,1,.147.466L6.014,24.438l6.723-3.716A.541.541,0,0,1,13,20.655Z" fill="#fe6625"/>
    </g>
  </g>
</svg>
