<svg xmlns="http://www.w3.org/2000/svg" width="31.61" height="38.534" viewBox="0 0 31.61 38.534">
  <g id="trofeu" transform="translate(-46 -1)">
    <g id="Grupo_39" data-name="Grupo 39" transform="translate(46 1)">
      <path id="Caminho_103" data-name="Caminho 103" d="M229.078,452h-3.132a.753.753,0,1,0,0,1.505h3.132a.753.753,0,1,0,0-1.505Z" transform="translate(-211.708 -417.982)" fill="#fff"/>
      <path id="Caminho_104" data-name="Caminho 104" d="M76.857,6.021H72.341V4.386A2.258,2.258,0,0,0,71.589,0H52.021a2.258,2.258,0,0,0-.753,4.386V6.021H46.753A.753.753,0,0,0,46,6.774v5.268a6.028,6.028,0,0,0,6.021,6.021h.636q.217.378.466.741a10.588,10.588,0,0,0,4.182,3.567,2.253,2.253,0,0,0,1.69,2.453c-.9,3.013-2.511,6.183-4.415,6.183H52.774a.753.753,0,0,0-.747.659l-.753,6.021a.753.753,0,0,0,.747.846H71.589a.753.753,0,0,0,.747-.846l-.753-6.021a.753.753,0,0,0-.747-.659H69.03c-1.152,0-2.126-1.21-2.739-2.225a17.881,17.881,0,0,1-1.675-3.959,2.253,2.253,0,0,0,1.69-2.453A10.587,10.587,0,0,0,70.487,18.8q.249-.362.465-.74h.636a6.028,6.028,0,0,0,6.021-6.021V6.774a.753.753,0,0,0-.753-.753ZM47.505,12.042V7.526h3.763v5.325a10.446,10.446,0,0,0,.677,3.7A4.52,4.52,0,0,1,47.505,12.042ZM70.736,37.029H52.873l.564-4.516H70.172Zm-4.673-6.021H57.547a9.208,9.208,0,0,0,1.057-1.44,19.972,19.972,0,0,0,1.939-4.675h2.524A19.975,19.975,0,0,0,65,29.562,9.214,9.214,0,0,0,66.063,31.008Zm-2-7.62H59.547a.753.753,0,0,1,0-1.505h4.516a.753.753,0,1,1,0,1.505Zm1.577-2.367a2.25,2.25,0,0,0-1.577-.644H59.547a2.25,2.25,0,0,0-1.577.644,9,9,0,0,1-5.2-8.17V4.516h5.644a.753.753,0,1,0,0-1.505h-6.4a.753.753,0,0,1,0-1.505H71.589a.753.753,0,1,1,0,1.505h-6.4a.753.753,0,1,0,0,1.505h5.645v8.335A9,9,0,0,1,65.639,21.021ZM76.1,12.042a4.52,4.52,0,0,1-4.44,4.514,10.446,10.446,0,0,0,.677-3.7V7.526H76.1Z" transform="translate(-46 0)" fill="#fff"/>
      <path id="Caminho_105" data-name="Caminho 105" d="M197.313,98.135l-1.688-.3-.838-1.542h0a1.5,1.5,0,0,0-2.645.012l-.806,1.513-1.693.315a1.5,1.5,0,0,0-.844,2.527l1.191,1.235-.218,1.665a1.5,1.5,0,0,0,.989,1.694,1.5,1.5,0,0,0,1.149-.069l1.54-.75,1.585.755a1.5,1.5,0,0,0,2.137-1.565l-.237-1.7L198.1,100.7a1.5,1.5,0,0,0-.786-2.563Zm-.293,1.514-1.427,1.5a.753.753,0,0,0-.2.622l.289,2.056-1.913-.911a.753.753,0,0,0-.653,0l-1.866.909c0-.018.007-.036.009-.054l.269-2.047a.752.752,0,0,0-.2-.62l-1.443-1.492.025,0,2.06-.383a.753.753,0,0,0,.527-.386l.972-1.83,1.01,1.858a.753.753,0,0,0,.53.382l2.047.361Z" transform="translate(-177.663 -88.321)" fill="#fff"/>
      <path id="Caminho_106" data-name="Caminho 106" d="M246.75,41.505a.753.753,0,0,0,0-1.505h0a.753.753,0,0,0,0,1.505Z" transform="translate(-230.945 -36.99)" fill="#fff"/>
    </g>
  </g>
</svg>
